<?xml version="1.0" encoding="UTF-8" standalone="no"?>
<svg
   xmlns:dc="http://purl.org/dc/elements/1.1/"
   xmlns:cc="http://creativecommons.org/ns#"
   xmlns:rdf="http://www.w3.org/1999/02/22-rdf-syntax-ns#"
   xmlns:svg="http://www.w3.org/2000/svg"
   xmlns="http://www.w3.org/2000/svg"
   xmlns:sodipodi="http://sodipodi.sourceforge.net/DTD/sodipodi-0.dtd"
   xmlns:inkscape="http://www.inkscape.org/namespaces/inkscape"
   enable-background="new 0 0 70 70"
   version="1.1"
   viewBox="14.7 23 39.514999 24.641"
   xml:space="preserve"
   id="svg12"
   sodipodi:docname="amazon-ses.svg"
   width="39.514999"
   height="24.641001"
   inkscape:version="0.92.4 (5da689c313, 2019-01-14)"><metadata
   id="metadata18"><rdf:RDF><cc:Work
       rdf:about=""><dc:format>image/svg+xml</dc:format><dc:type
         rdf:resource="http://purl.org/dc/dcmitype/StillImage" /><dc:title></dc:title></cc:Work></rdf:RDF></metadata><defs
   id="defs16" /><sodipodi:namedview
   pagecolor="#ffffff"
   bordercolor="#666666"
   borderopacity="1"
   objecttolerance="10"
   gridtolerance="10"
   guidetolerance="10"
   inkscape:pageopacity="0"
   inkscape:pageshadow="2"
   inkscape:window-width="724"
   inkscape:window-height="480"
   id="namedview14"
   showgrid="false"
   fit-margin-top="0"
   fit-margin-left="0"
   fit-margin-right="0"
   fit-margin-bottom="0"
   inkscape:zoom="6.7619048"
   inkscape:cx="19.398"
   inkscape:cy="11.97"
   inkscape:window-x="2673"
   inkscape:window-y="298"
   inkscape:window-maximized="0"
   inkscape:current-layer="svg12" />
	<polygon
   points="28.182,40.34 27.115,35.764 27.09,35.764 25.984,40.34 "
   id="polygon2"
   style="fill:#f7981f"
   transform="translate(-1.602,-0.429)" />
	<path
   d="m 14.7,40.315 v 0.666 c 0,3.311 3.579,6.66 7.991,6.66 h 23.533 c 4.412,0 7.991,-3.35 7.991,-6.66 v -0.666 c 0,-3.078 -3.098,-6.943 -7.081,-7.283 -0.089,-2.752 -2.342,-4.955 -5.113,-4.955 -1.076,0 -2.074,0.334 -2.898,0.9 C 37.543,25.457 34.016,23 29.907,23 c -5.579,0 -10.101,4.521 -10.101,10.102 0,0.1 0.012,0.195 0.015,0.293 -2.993,0.867 -5.121,4.371 -5.121,6.92 z M 27.399,43.37 26.827,41.095 H 24.11 l -0.599,2.275 h -1.547 l 2.639,-9.283 h 1.898 l 2.444,9.283 z m 9.012,0 H 34.695 L 33.499,36.376 H 33.473 L 32.29,43.37 h -1.716 l -1.795,-9.283 h 1.496 l 1.221,7.215 h 0.027 l 1.221,-7.215 h 1.561 l 1.248,7.254 h 0.026 l 1.209,-7.254 h 1.469 z m 5.433,0.181 c -2.301,0 -2.821,-1.533 -2.821,-2.834 v -0.221 h 1.482 v 0.234 c 0,1.131 0.494,1.703 1.521,1.703 0.936,0 1.403,-0.664 1.403,-1.354 0,-0.975 -0.493,-1.404 -1.325,-1.65 l -1.015,-0.352 c -1.353,-0.52 -1.937,-1.221 -1.937,-2.547 0,-1.691 1.144,-2.627 2.886,-2.627 2.379,0 2.626,1.482 2.626,2.443 v 0.209 H 43.182 V 36.36 c 0,-0.846 -0.377,-1.34 -1.3,-1.34 -0.637,0 -1.248,0.352 -1.248,1.34 0,0.793 0.403,1.195 1.392,1.572 l 1,0.365 c 1.313,0.467 1.886,1.184 1.886,2.457 10e-4,1.979 -1.196,2.797 -3.068,2.797 z"
   id="path4"
   inkscape:connector-curvature="0"
   style="fill:#f7981f" />
	<path
   d="m 24.603,34.087 -2.639,9.283 h 1.547 l 0.599,-2.275 h 2.717 l 0.572,2.275 h 1.547 l -2.444,-9.283 z m -0.221,5.824 1.105,-4.576 h 0.025 l 1.066,4.576 z"
   id="path6"
   inkscape:connector-curvature="0"
   style="fill:#ffffff" />
	<polygon
   points="35.906,34.516 34.346,34.516 33.125,41.73 33.098,41.73 31.877,34.516 30.381,34.516 32.176,43.799 33.892,43.799 35.074,36.805 35.101,36.805 36.297,43.799 38.013,43.799 39.858,34.516 38.39,34.516 37.181,41.77 37.154,41.77 "
   id="polygon8"
   style="fill:#ffffff"
   transform="translate(-1.602,-0.429)" />
	<path
   d="m 43.027,38.3 -1,-0.365 c -0.988,-0.377 -1.392,-0.779 -1.392,-1.572 0,-0.988 0.611,-1.34 1.248,-1.34 0.923,0 1.3,0.494 1.3,1.34 v 0.195 h 1.482 v -0.209 c 0,-0.961 -0.247,-2.443 -2.626,-2.443 -1.742,0 -2.886,0.936 -2.886,2.627 0,1.326 0.584,2.027 1.937,2.547 l 1.015,0.352 c 0.832,0.246 1.325,0.676 1.325,1.65 0,0.689 -0.468,1.354 -1.403,1.354 -1.027,0 -1.521,-0.572 -1.521,-1.703 v -0.234 h -1.482 v 0.221 c 0,1.301 0.521,2.834 2.821,2.834 1.872,0 3.068,-0.818 3.068,-2.795 0,-1.276 -0.573,-1.993 -1.886,-2.459 z"
   id="path10"
   inkscape:connector-curvature="0"
   style="fill:#ffffff" />
</svg>