<?xml version="1.0" encoding="UTF-8" standalone="no"?>
<svg
   xmlns:dc="http://purl.org/dc/elements/1.1/"
   xmlns:cc="http://creativecommons.org/ns#"
   xmlns:rdf="http://www.w3.org/1999/02/22-rdf-syntax-ns#"
   xmlns:svg="http://www.w3.org/2000/svg"
   xmlns="http://www.w3.org/2000/svg"
   xmlns:sodipodi="http://sodipodi.sourceforge.net/DTD/sodipodi-0.dtd"
   xmlns:inkscape="http://www.inkscape.org/namespaces/inkscape"
   version="1.1"
   id="Layer_1"
   x="0"
   y="0"
   xml:space="preserve"
   viewBox="0 0 23.999999 23.999999"
   sodipodi:docname="logo-square-icon.svg"
   width="24"
   height="24"
   inkscape:version="0.92.4 (5da689c313, 2019-01-14)"><metadata
   id="metadata15"><rdf:RDF><cc:Work
       rdf:about=""><dc:format>image/svg+xml</dc:format><dc:type
         rdf:resource="http://purl.org/dc/dcmitype/StillImage" /><dc:title></dc:title></cc:Work></rdf:RDF></metadata><defs
   id="defs13">
    
    
  
      
      
    </defs><sodipodi:namedview
   pagecolor="#ffffff"
   bordercolor="#666666"
   borderopacity="1"
   objecttolerance="10"
   gridtolerance="10"
   guidetolerance="10"
   inkscape:pageopacity="0"
   inkscape:pageshadow="2"
   inkscape:window-width="2560"
   inkscape:window-height="1017"
   id="namedview11"
   showgrid="false"
   inkscape:zoom="13.244222"
   inkscape:cx="43.093164"
   inkscape:cy="21.638487"
   inkscape:window-x="1912"
   inkscape:window-y="-8"
   inkscape:window-maximized="1"
   inkscape:current-layer="Layer_1" />
  <style
   type="text/css"
   id="style2">
    .st0{fill:#675de2}
  </style>
  <g
   id="g8"
   style="stroke-width:17.64090919"
   transform="matrix(0.05668642,0,0,0.05668642,4.1772702,0.22906489)">
        
        
      </g><path
   id="path14"
   style="stroke-width:1"
   d="m 12.00283,23 c 1.536202,0 2.788972,-1.25277 2.788972,-2.788972 H 9.2081899 C 9.2081899,21.741561 10.466628,23 12.00283,23 Z M 10.049984,4.6052566 A 2.4601908,2.4601908 0 0 1 7.5897927,7.0654473 2.4601908,2.4601908 0 0 1 5.129602,4.6052566 2.4601908,2.4601908 0 0 1 7.5897927,2.1450658 2.4601908,2.4601908 0 0 1 10.049984,4.6052566 Z m 1.955681,-3.6052564 c -0.697243,0 -1.366143,0.1077042 -2.001031,0.2947694 0.889977,0.6518938 1.490853,1.6439062 1.638238,2.7833032 0.119041,-0.011337 0.238083,-0.034012 0.357124,-0.034012 2.137078,0 3.88302,1.7459417 3.88302,3.8830197 V 18.810873 h 3.044061 V 7.9270807 C 18.932745,4.106416 15.82633,1.0000002 12.005665,1.0000002 Z M 7.5897927,8.715022 c -0.9523319,0 -1.8139655,-0.3344499 -2.5112084,-0.8786395 0,0.028343 -0.00567,0.062355 -0.00567,0.090698 V 18.810873 H 8.1169764 V 8.6640042 C 7.9412485,8.6866788 7.7711892,8.715022 7.5897927,8.715022 Z" />
</svg>