<svg xmlns="http://www.w3.org/2000/svg" version="1.1" id="Layer_1" x="0" y="0" viewBox="0 0 1153 412" xml:space="preserve">
  <style type="text/css" id="style2">
    .st0{fill:#675de2}.st2{fill:#372f66}
  </style>
  <g id="g12">
    <g id="g8">
      <path class="st0" d="M60.2 149.7c-16.8 0-32-5.9-44.3-15.5 0 .5-.1 1.1-.1 1.6v192h53.7v-179c-3.1.4-6.1.9-9.3.9z" id="path4"/>
      <path class="st0" d="M138.1 13.6c-12.3 0-24.1 1.9-35.3 5.2 15.7 11.5 26.3 29 28.9 49.1 2.1-.2 4.2-.6 6.3-.6 37.7 0 68.5 30.8 68.5 68.5v192h53.7v-192c.1-67.4-54.7-122.2-122.1-122.2z" id="path6"/>
    </g>
    <circle cx="60.2" cy="77.2" r="43.4" id="circle10" fill="#ef3f5d"/>
  </g>
  <path class="st0" d="M138.1 401.7c27.1 0 49.2-22.1 49.2-49.2H88.8c0 27 22.2 49.2 49.3 49.2z" id="path14"/>
  <path class="st2" d="M396.1 121.2c28.6 0 52.1 23.4 52.1 52.1v49.6c0 28.6-23.4 52.1-52.1 52.1S344 251.6 344 222.9v-49.6c.1-28.7 23.5-52.1 52.1-52.1m0-53.8c-58.3 0-105.8 47.5-105.8 105.8v49.6c0 58.3 47.5 105.8 105.8 105.8s105.8-47.5 105.8-105.8v-49.6c0-58.3-47.5-105.8-105.8-105.8z" id="path16"/>
  <path class="st2" d="M1032.2 121.2c28.6 0 52.1 23.4 52.1 52.1v49.6c0 28.6-23.4 52.1-52.1 52.1-28.6 0-52.1-23.4-52.1-52.1v-49.6c0-28.7 23.5-52.1 52.1-52.1m0-53.8c-58.3 0-105.8 47.5-105.8 105.8v49.6c0 58.3 47.5 105.8 105.8 105.8S1138 281.2 1138 222.8v-49.6c0-58.3-47.5-105.8-105.8-105.8z" id="path18"/>
  <g id="g22">
    <path class="st2" id="rect20" d="M705.2 121.2h53.7v206.6h-53.7z"/>
  </g>
  <path class="st2" d="M895.5 121.2h-52.1v-1.9c0-28.6 23.4-52.1 52.1-52.1V13.5c-58.3 0-105.8 47.5-105.8 105.8v209.3h53.7V175h52.1v-53.8z" id="path24"/>
  <path class="st2" d="M638.2 274.9c-28.6 0-52.1-23.4-52.1-52.1V175h89.2v-53.7h-89.2V13.5h-53.7v209.3c0 58.3 47.5 105.8 105.8 105.8h37.1v-53.7h-37.1z" id="path26"/>
  <path class="st2" id="rect28" d="M705.2 13.6H759v53.8h-53.8z"/>
</svg>